# WaveFront *.obj file (generated by CINEMA 4D)

mtllib ./walls.mtl

v -5.00000000000000 0.00000000000000 -6.00000000000000
v -5.00000000000000 6.00000000000000 -6.00000000000000
v -3.00000000000000 6.00000000000000 -6.00000000000000
v -3.00000000000000 0.00000000000000 -6.00000000000000
v -3.00000000000000 6.00000000000000 0.00000000000000
v -3.00000000000000 0.00000000000000 0.00000000000000
v -5.00000000000000 6.00000000000000 0.00000000000000
v -5.00000000000000 0.00000000000000 0.00000000000000
# 8 vertices

vn 0.00000000000000 0.00000000000000 -1.00000000000000
vn 0.00000000000000 0.00000000000000 0.00000000000000
vn 1.00000000000000 0.00000000000000 0.00000000000000
vn 0.00000000000000 0.00000000000000 1.00000000000000
vn 0.00000000000000 -0.00000000000000 1.00000000000000
vn -1.00000000000000 0.00000000000000 0.00000000000000
vn 0.00000000000000 1.00000000000000 0.00000000000000
vn 0.00000000000000 -1.00000000000000 0.00000000000000
# 8 normals

vt 0.00000000000000 -0.00000000000000 0.00000000000000
vt 1.00000000000000 -0.00000000000000 0.00000000000000
vt 1.00000000000000 -1.00000000000000 0.00000000000000
# 3 texture coordinates

o Cube
usemtl default
f 1/3/1 2/3/1 3/2/1
f 4/3/3 3/3/3 5/2/3
f 6/3/4 5/3/5 7/2/4
f 8/3/6 7/3/6 2/2/6
f 2/3/7 7/3/7 5/2/7
f 8/3/8 1/3/8 4/2/8
f 1/3/1 3/3/1 4/3/1
f 4/3/3 5/3/3 6/3/3
f 6/3/4 7/3/4 8/3/4
f 8/3/6 2/3/6 1/3/6
f 2/3/7 5/3/7 3/3/7
f 8/3/8 4/3/8 6/3/8

v 3.00000000000000 0.00000000000000 -6.00000000000000
v 3.00000000000000 6.00000000000000 -6.00000000000000
v 5.00000000000000 6.00000000000000 -6.00000000000000
v 5.00000000000000 0.00000000000000 -6.00000000000000
v 5.00000000000000 6.00000000000000 0.00000000000000
v 5.00000000000000 0.00000000000000 0.00000000000000
v 3.00000000000000 6.00000000000000 0.00000000000000
v 3.00000000000000 0.00000000000000 0.00000000000000
# 8 vertices

# 0 normal

# 0 texture coordinate

o Cube.1
usemtl default
f 9/3/1 10/3/1 11/2/1
f 12/3/3 11/3/3 13/2/3
f 14/3/4 13/3/5 15/2/4
f 16/3/6 15/3/6 10/2/6
f 10/3/7 15/3/7 13/2/7
f 16/3/8 9/3/8 12/2/8
f 9/3/1 11/3/1 12/3/1
f 12/3/3 13/3/3 14/3/3
f 14/3/4 15/3/4 16/3/4
f 16/3/6 10/3/6 9/3/6
f 10/3/7 13/3/7 11/3/7
f 16/3/8 12/3/8 14/3/8

v -3.00000000000000 -0.10000000000000 -6.00000000000000
v 3.00000000000000 -0.10000000000000 -6.00000000000000
v 3.00000000000000 -0.10000000000000 0.00000000000000
v -3.00000000000000 -0.10000000000000 0.00000000000000
# 4 vertices

# 0 normal

# 0 texture coordinate

o Cube.2
usemtl default
f 17/3/1 4/3/1 9/2/1
f 18/3/3 9/3/3 16/2/3
f 19/3/4 16/3/5 6/2/4
f 20/3/6 6/3/6 4/2/6
f 4/3/7 6/3/7 16/2/7
f 20/3/8 17/3/8 18/2/8
f 17/3/1 9/3/1 18/3/1
f 18/3/3 16/3/3 19/3/3
f 19/3/4 6/3/4 20/3/4
f 20/3/6 4/3/6 17/3/6
f 4/3/7 16/3/7 9/3/7
f 20/3/8 18/3/8 19/3/8

